# xmcd CD database file
#
# Track frame offsets:
#	150
#	9987
#	25217
#	43390
#	57032
#	73512
#	87470
#	101672
#	116077
#	130985
#	146187
#	160582
#	185857
#	199330
#
# Disc length: 2809 seconds
#
# Revision: 0
# Processed by: cddbd v1.4PL0 Copyright (c) Steve Scherf et al.
# Submitted via: CDex 1.40Release
#
DISCID=ce0af70e
DTITLE=Dale Hawkins - Wildcat Tamer
DYEAR=1999
DGENRE=Country
TTITLE0=Wildcat Tamer
TTITLE1=Natural Man
TTITLE2=Born In Louisiana
TTITLE3=Goin' Down The Road
TTITLE4=Change Game
TTITLE5=Fire
TTITLE6=Hat Trick
TTITLE7=Irene
TTITLE8=Summer Time Down South
TTITLE9=Country Girl
TTITLE10=Every Way I Can
TTITLE11=Take It Home
TTITLE12=Promised Land
TTITLE13=Suzie Q
EXTD=YEAR: 1999 ID3G: 2
EXTT0=
EXTT1=
EXTT2=
EXTT3=
EXTT4=
EXTT5=
EXTT6=
EXTT7=
EXTT8=
EXTT9=
EXTT10=
EXTT11=
EXTT12=
EXTT13=
PLAYORDER=
